<?xml version="1.0" standalone="no"?>
<!DOCTYPE svg PUBLIC "-//W3C//DTD SVG 20010904//EN"
 "http://www.w3.org/TR/2001/REC-SVG-20010904/DTD/svg10.dtd">
<svg version="1.0" xmlns="http://www.w3.org/2000/svg"
 width="500.000000pt" height="500.000000pt" viewBox="0 0 500.000000 500.000000"
 preserveAspectRatio="xMidYMid meet">
<metadata>
Created by potrace 1.11, written by Peter Selinger 2001-2013
</metadata>
<g transform="translate(0.000000,500.000000) scale(0.100000,-0.100000)"
fill="#000000" stroke="none">
<path d="M247 4993 c-3 -5 -12 -34 -21 -65 -9 -32 -18 -58 -21 -58 -2 0 -2 24
1 53 l5 52 -20 -37 c-22 -39 -62 -174 -67 -223 -1 -16 -6 -51 -10 -76 -4 -30
-2 -49 5 -53 16 -10 14 -53 -9 -141 -21 -84 -26 -198 -11 -267 6 -24 14 -69
20 -101 5 -31 17 -69 25 -85 9 -15 27 -52 42 -82 15 -30 35 -67 45 -81 10 -14
28 -52 40 -84 12 -33 37 -75 56 -94 19 -20 37 -47 40 -62 3 -15 37 -58 79
-100 76 -75 85 -89 60 -89 -20 0 -29 -16 -21 -40 5 -15 10 -18 23 -11 15 9 21
3 86 -84 6 -9 4 -19 -7 -30 -9 -9 -17 -31 -17 -48 l1 -32 18 23 c11 12 24 22
30 22 17 0 13 -40 -4 -47 -9 -3 -23 -20 -32 -37 -22 -40 -53 -130 -47 -135 2
-2 15 9 29 25 l26 29 -15 -36 c-15 -35 -14 -38 9 -63 13 -14 31 -26 38 -26 16
0 30 27 21 41 -3 5 -1 9 5 9 5 0 9 28 9 63 -1 99 12 167 44 231 30 60 31 79 2
55 -15 -12 -18 -12 -22 0 -3 9 -9 4 -18 -15 l-14 -29 5 40 c3 22 8 51 12 65 6
22 5 24 -10 11 -20 -16 -22 -3 -3 22 7 9 21 17 30 17 10 0 15 4 11 9 -3 5 -1
12 5 16 5 3 10 1 10 -4 0 -6 3 -10 8 -10 24 4 23 -3 -4 -20 -19 -12 -33 -30
-37 -48 -6 -33 -2 -40 15 -26 7 6 27 13 43 16 25 4 35 0 58 -26 22 -25 29 -29
34 -17 15 36 62 70 97 70 27 0 45 9 78 39 47 44 45 67 -3 32 -17 -13 -43 -26
-59 -31 -24 -7 -27 -5 -27 15 0 31 37 65 112 103 40 21 53 31 38 32 -12 0 -25
5 -28 10 -3 6 -17 10 -30 10 -13 0 -27 -4 -30 -10 -3 -5 -16 -10 -28 -10 -20
1 -21 2 -5 14 10 7 15 16 11 19 -3 4 -1 7 5 7 21 0 13 16 -13 28 -14 6 -25 18
-25 27 0 12 9 13 46 9 55 -6 64 2 64 61 0 25 3 35 9 27 5 -9 15 -2 35 28 14
22 33 40 42 40 9 0 38 -16 64 -35 46 -34 70 -42 83 -29 8 8 -18 34 -35 35 -7
0 11 8 41 17 30 10 55 24 57 32 1 8 5 23 9 33 6 15 4 16 -20 7 -34 -13 -38
-13 -28 3 4 6 8 17 9 22 0 6 2 16 2 22 5 33 118 57 160 34 11 -6 21 -4 30 5
11 12 10 14 -5 15 -16 0 -16 1 2 9 18 8 18 9 2 9 -14 1 -17 6 -12 21 5 17 2
20 -26 20 -17 0 -70 -15 -118 -34 -47 -19 -95 -36 -106 -39 -11 -3 -30 -8 -42
-12 -17 -4 -23 -2 -23 8 0 15 -29 32 -38 22 -3 -3 0 -5 8 -5 10 0 10 -3 0 -15
-7 -8 -21 -15 -31 -15 -17 0 -32 -15 -35 -35 0 -5 -2 -16 -2 -22 -1 -7 -7 -13
-12 -13 -6 0 -28 -11 -50 -25 -47 -30 -64 -32 -50 -7 5 9 14 29 20 45 5 15 16
27 24 27 10 0 13 6 9 17 -4 10 -2 14 4 10 6 -4 13 4 15 18 4 21 2 23 -13 15
-10 -6 -20 -19 -24 -29 -3 -11 -12 -24 -20 -31 -11 -9 -13 -7 -11 14 1 14 8
32 16 41 7 8 13 29 14 45 1 22 9 34 36 49 19 11 48 34 63 51 16 16 32 28 36
26 3 -2 22 9 41 24 l35 29 -30 -5 c-28 -5 -28 -4 -12 14 9 10 14 22 10 27 -5
4 -3 5 3 2 6 -3 27 14 47 38 20 24 46 46 56 50 12 4 18 12 14 21 -3 9 1 14 12
14 9 0 13 -4 10 -10 -11 -17 14 -11 30 8 52 60 72 89 68 102 -4 13 -3 13 6 0
10 -13 12 -13 21 0 5 8 13 30 16 48 3 17 10 32 15 32 10 0 22 -41 17 -63 -2
-9 0 -16 5 -16 35 -3 48 2 61 27 13 26 13 31 -2 45 -9 10 -12 17 -6 17 6 0 21
-11 34 -25 13 -14 29 -25 37 -25 7 0 13 -5 13 -11 0 -13 26 -5 95 26 57 27
145 50 225 60 30 3 66 9 79 12 16 4 22 2 17 -5 -8 -13 49 2 69 18 8 6 39 14
69 17 46 5 54 8 45 19 -6 8 -20 14 -30 14 -10 0 -21 5 -24 10 -4 7 2 9 17 6
72 -15 108 -16 108 -3 0 7 -5 18 -12 25 -9 9 -9 12 -1 12 7 0 15 -4 18 -10 10
-16 45 -12 45 5 0 10 10 15 28 15 15 0 42 9 59 20 27 16 33 17 33 5 0 -19 -2
-20 72 15 34 16 69 30 76 30 29 0 3 -25 -59 -57 -59 -30 -109 -69 -109 -84 0
-3 17 -6 38 -7 20 -1 69 -9 107 -17 39 -8 89 -15 113 -15 23 0 42 -4 42 -8 0
-18 42 -52 65 -52 32 0 32 -13 0 -34 -34 -23 -31 -33 13 -43 33 -8 37 -13 40
-42 4 -34 51 -91 76 -91 7 0 31 -18 53 -40 l41 -40 -5 -78 c-5 -65 -3 -80 12
-92 13 -11 21 -11 35 -2 15 9 19 7 23 -16 4 -20 -3 -41 -29 -79 -19 -29 -34
-57 -34 -62 0 -17 19 -22 38 -12 17 9 19 6 17 -34 0 -25 -4 -48 -8 -51 -4 -4
-1 -14 7 -23 8 -9 16 -25 17 -35 4 -18 8 -16 42 14 l39 34 34 -19 c42 -22 43
-31 4 -40 -26 -6 -50 -30 -50 -50 0 -8 43 16 52 29 5 8 8 7 8 -2 0 -8 8 -10
24 -6 18 4 27 1 36 -15 6 -12 16 -21 22 -21 6 0 17 -8 24 -17 11 -15 16 -16
34 -5 26 16 36 10 43 -27 4 -19 18 -36 42 -51 19 -12 35 -30 35 -40 0 -22 97
-64 124 -54 10 4 22 0 29 -10 12 -16 65 -17 130 -1 22 6 27 4 27 -12 0 -16 7
-18 43 -17 23 1 36 0 30 -3 -7 -2 -13 -12 -13 -21 0 -15 -2 -15 -10 -2 -8 13
-10 13 -10 1 0 -11 -3 -12 -11 -4 -12 12 -49 6 -49 -8 0 -5 11 -9 25 -9 17 0
25 -5 25 -17 0 -31 -12 -63 -21 -57 -5 3 -9 -2 -9 -11 0 -9 5 -13 10 -10 5 3
10 2 10 -4 0 -5 -6 -12 -12 -14 -8 -3 -6 -6 4 -6 22 -1 58 -31 58 -48 0 -7 10
-23 21 -34 16 -16 18 -23 9 -29 -24 -15 -14 -73 17 -98 15 -13 56 -47 90 -75
34 -29 62 -57 62 -63 1 -6 11 -26 24 -45 12 -19 33 -65 45 -104 13 -38 34 -87
48 -107 13 -21 24 -42 24 -47 0 -5 7 -17 16 -26 15 -14 18 -13 41 12 24 28
103 156 103 168 0 4 13 36 30 72 16 35 30 68 30 73 0 4 22 77 50 162 27 84 59
191 69 238 72 311 103 708 67 848 -18 69 -31 129 -46 202 -6 30 -16 75 -22
100 -6 25 -14 63 -18 85 -18 101 -103 319 -152 388 l-19 27 -2054 0 c-1130 0
-2056 -3 -2058 -7z m2123 -253 c0 -5 -4 -10 -10 -10 -5 0 -10 5 -10 10 0 6 5
10 10 10 6 0 10 -4 10 -10z m-968 -212 c-15 -15 -26 -4 -18 18 5 13 9 15 18 6
9 -9 9 -15 0 -24z m-347 -690 c-4 -9 -14 -19 -23 -22 -9 -3 -28 -10 -42 -16
-21 -9 -18 -4 15 29 37 39 63 43 50 9z m2076 -41 c-10 -9 -11 -8 -5 6 3 10 9
15 12 12 3 -3 0 -11 -7 -18z m-2359 -86 c-16 -28 -31 -48 -35 -45 -3 3 8 28
25 55 40 65 48 56 10 -10z m108 3 c0 -4 -12 -21 -27 -39 -56 -66 -88 -110 -85
-119 2 -5 -3 -6 -11 -3 -9 3 -12 -3 -10 -22 2 -15 -5 -36 -17 -51 -16 -20 -20
-22 -20 -8 0 18 -28 14 -42 -6 -4 -6 -6 13 -5 41 1 28 6 48 11 45 5 -3 7 2 3
11 -4 10 -2 16 6 14 7 -1 11 6 11 15 -1 10 3 16 10 15 6 -1 10 7 9 18 -1 17 0
18 10 4 8 -13 13 -14 26 -3 109 89 131 104 131 88z m2917 -69 c-1 -5 -6 -13
-10 -16 -4 -3 -4 -14 -1 -24 7 -18 8 -18 15 1 6 16 8 15 8 -8 1 -16 7 -28 14
-29 7 0 6 -3 -3 -6 -18 -7 -36 -25 -37 -36 -1 -5 -4 -12 -8 -15 -4 -4 -5 7 -4
23 3 20 0 29 -9 28 -6 -2 -12 2 -12 7 0 6 5 10 11 10 8 0 7 5 -1 15 -10 13
-10 19 5 35 10 11 13 20 7 20 -6 0 -9 7 -6 15 5 11 9 12 19 2 7 -7 12 -16 12
-22z m-2855 -109 c7 4 8 3 4 -4 -9 -14 -46 -16 -46 -3 0 5 -3 17 -7 27 -5 14
-2 13 16 -5 12 -12 27 -19 33 -15z m2785 -23 c-3 -10 -5 -4 -5 12 0 17 2 24 5
18 2 -7 2 -21 0 -30z m-50 21 c-3 -3 -12 -4 -19 -1 -8 3 -5 6 6 6 11 1 17 -2
13 -5z m227 -82 c3 -5 -1 -9 -9 -9 -8 0 -12 4 -9 9 3 4 7 8 9 8 2 0 6 -4 9 -8z
m-44 -53 c0 -6 -4 -7 -10 -4 -5 3 -10 11 -10 16 0 6 5 7 10 4 6 -3 10 -11 10
-16z m32 14 c-6 -2 -9 -10 -6 -15 4 -7 2 -8 -4 -4 -18 11 -14 26 6 25 10 0 12
-3 4 -6z"/>
<path d="M4749 4966 c13 -21 21 -50 21 -80 0 -25 9 -69 20 -97 10 -29 17 -55
15 -59 -6 -10 23 -80 33 -80 4 0 8 -19 9 -42 1 -24 6 -72 10 -108 9 -65 12
-64 26 5 3 11 5 3 6 -17 0 -21 8 -58 17 -83 10 -30 16 -84 16 -151 1 -57 4
-104 7 -104 11 0 8 -425 -3 -432 -7 -5 -6 -8 4 -8 11 0 12 -2 3 -8 -15 -10
-17 -56 -5 -104 6 -21 8 -38 5 -38 -3 0 -1 -6 5 -13 7 -8 6 -18 -4 -31 -8 -11
-14 -30 -14 -42 0 -12 -11 -59 -24 -105 -13 -46 -26 -98 -29 -116 -3 -17 -8
-37 -13 -44 -4 -7 -9 -22 -11 -33 -28 -170 -31 -181 -52 -194 -11 -8 -21 -22
-21 -32 0 -10 -7 -23 -15 -30 -8 -7 -15 -17 -15 -22 0 -5 -7 -16 -15 -24 -8
-9 -15 -22 -15 -30 0 -17 27 -19 33 -1 2 6 7 9 11 6 13 -13 -7 -39 -30 -39
-14 0 -27 -7 -31 -17 -4 -10 -12 -22 -19 -28 -7 -5 -35 -53 -62 -105 -27 -53
-63 -115 -80 -139 -28 -39 -30 -45 -16 -55 14 -11 14 -13 0 -25 -9 -8 -16 -20
-16 -27 0 -8 -6 -14 -13 -14 -21 0 -57 -39 -63 -68 -4 -17 -20 -36 -45 -52
l-39 -24 0 -78 c0 -42 9 -115 19 -160 20 -82 24 -208 7 -208 -7 0 -2 -167 10
-308 3 -37 0 -60 -11 -75 -17 -25 -20 -70 -5 -97 7 -13 7 -21 0 -25 -6 -3 -10
4 -10 16 0 12 -3 20 -6 17 -10 -10 -35 -131 -30 -145 3 -7 2 -13 -2 -13 -9 0
-51 -107 -70 -175 -6 -22 -15 -51 -19 -65 -4 -14 -7 -27 -8 -30 -3 -15 -121
-237 -137 -257 -6 -7 -7 -20 -4 -29 4 -10 -5 -27 -24 -45 -16 -17 -35 -49 -42
-72 -13 -48 -27 -69 -39 -61 -16 10 -50 -16 -44 -34 3 -13 -1 -18 -16 -19 -29
-2 -37 -12 -19 -23 12 -8 10 -10 -9 -10 -34 0 -89 -45 -106 -87 -19 -45 -19
-63 1 -63 29 0 6 -16 -27 -18 -29 -2 -69 -33 -69 -53 0 -4 -21 -29 -46 -56
-87 -92 -159 -83 651 -83 l715 0 0 2500 0 2500 -136 0 -136 0 21 -34z m-109
-2356 c0 -5 -2 -10 -4 -10 -3 0 -8 5 -11 10 -3 6 -1 10 4 10 6 0 11 -4 11 -10z
m-410 -2462 c0 10 3 10 15 -2 8 -8 15 -19 15 -25 0 -15 -17 -14 -23 2 -3 6 -6
3 -6 -8 -1 -17 -3 -17 -11 -5 -5 8 -10 24 -10 35 0 17 2 17 10 5 7 -11 10 -12
10 -2z m303 3 c3 8 6 1 6 -16 0 -21 -2 -26 -8 -16 -7 11 -9 11 -14 0 -3 -8 -6
0 -6 16 0 21 2 26 8 16 7 -11 9 -11 14 0z m237 -3 c0 -7 -5 -20 -11 -28 -8
-12 -9 -10 -4 9 5 17 4 22 -5 16 -9 -5 -11 -4 -6 3 10 16 26 15 26 0z m40 -12
c0 -14 -5 -28 -10 -31 -13 -8 -24 20 -16 40 9 24 26 17 26 -9z m27 -13 c-3
-10 -5 -4 -5 12 0 17 2 24 5 18 2 -7 2 -21 0 -30z m51 15 c-2 -12 -10 -23 -18
-25 -12 -4 -12 -3 -1 5 9 7 10 12 2 16 -13 8 -5 26 10 26 6 0 9 -10 7 -22z
m-520 -10 c-5 -13 -24 -9 -20 4 1 5 -2 6 -8 3 -6 -4 -9 -14 -6 -22 3 -8 1 -11
-4 -8 -14 9 -12 32 3 38 17 6 39 -3 35 -15z m345 2 c-3 -11 -7 -20 -9 -20 -2
0 -4 9 -4 20 0 11 4 20 9 20 5 0 7 -9 4 -20z m-423 -4 c0 -8 -4 -18 -10 -21
-5 -3 -10 3 -10 14 0 12 5 21 10 21 6 0 10 -6 10 -14z m130 -3 c0 -6 -9 -11
-20 -10 -11 1 -20 7 -20 14 0 6 9 11 20 10 11 -1 20 -7 20 -14z m40 2 c0 -6
-6 -12 -13 -12 -8 0 -14 6 -14 12 0 6 6 12 14 12 7 0 13 -6 13 -12z m107 0 c0
-8 -4 -15 -9 -15 -4 0 -8 7 -8 15 0 8 4 15 8 15 5 0 9 -7 9 -15z m27 0 c-4 -8
-8 -15 -10 -15 -2 0 -4 7 -4 15 0 8 4 15 10 15 5 0 7 -7 4 -15z m48 0 c4 -5 8
-14 8 -20 0 -5 -4 -4 -9 3 -4 8 -12 13 -17 12 -5 -1 -10 3 -12 10 -5 13 20 9
30 -5z m48 2 c0 -8 -7 -14 -15 -14 -8 0 -12 4 -9 8 2 4 -2 10 -8 12 -7 3 -3 6
10 6 12 1 22 -5 22 -12z"/>
<path d="M4792 130 c0 -14 2 -19 5 -12 2 6 2 18 0 25 -3 6 -5 1 -5 -13z"/>
<path d="M2420 4620 c0 -12 28 -21 35 -11 2 5 -4 11 -15 14 -11 3 -20 2 -20
-3z"/>
<path d="M1830 4545 c-24 -8 -72 -28 -106 -45 -49 -26 -61 -36 -57 -51 3 -11
9 -22 14 -25 11 -6 94 30 114 50 8 8 20 17 27 19 10 4 9 8 -2 17 -12 10 -11
11 7 7 14 -3 20 -1 17 7 -3 7 8 17 23 23 40 16 16 14 -37 -2z m-110 -95 c0 -5
-4 -10 -10 -10 -5 0 -10 5 -10 10 0 6 5 10 10 10 6 0 10 -4 10 -10z"/>
<path d="M1961 4425 c-23 -14 -51 -25 -60 -25 -9 0 -32 -8 -51 -19 -19 -10
-58 -24 -87 -30 -60 -15 -65 -20 -88 -81 -14 -38 -22 -176 -11 -188 2 -1 22 5
46 13 23 8 58 15 77 15 30 0 34 -2 23 -15 -7 -8 -10 -15 -7 -15 2 0 24 7 47
15 23 8 60 15 82 15 21 0 52 7 67 15 16 8 48 17 72 21 24 3 80 25 124 48 l80
42 0 -34 c0 -33 3 -35 46 -46 25 -7 56 -22 69 -34 13 -12 35 -22 49 -22 14 0
21 4 16 8 -6 4 -10 14 -10 22 1 8 -3 20 -7 26 -17 23 72 74 105 61 7 -2 19
-17 27 -31 11 -22 11 -29 2 -35 -22 -13 7 -60 47 -78 58 -24 175 -62 180 -57
2 2 -6 15 -19 29 -25 26 -21 47 5 25 16 -14 20 -3 6 19 -5 8 -16 11 -30 6 -26
-8 -27 -1 -1 23 38 35 -4 113 -82 153 -20 10 -41 25 -45 32 -4 7 -23 19 -42
27 -19 8 -53 32 -76 55 -51 52 -135 86 -121 50 6 -18 -16 -20 -45 -5 -38 21
-188 10 -242 -17 -21 -11 -32 -11 -49 -2 -22 12 -22 12 -3 20 13 5 15 8 5 8
-8 1 -24 4 -35 6 -11 3 -39 -6 -64 -20z m49 -9 c0 -3 -4 -8 -10 -11 -5 -3 -10
-1 -10 4 0 6 5 11 10 11 6 0 10 -2 10 -4z m437 -42 c-3 -3 -12 -4 -19 -1 -8 3
-5 6 6 6 11 1 17 -2 13 -5z"/>
<path d="M2515 4426 c10 -14 23 -26 31 -26 7 0 17 -6 21 -14 9 -15 52 -40 59
-34 7 8 -81 86 -104 93 -23 7 -23 7 -7 -19z"/>
<path d="M1335 4305 c-16 -8 -25 -14 -20 -15 6 0 -4 -8 -20 -19 -36 -21 -79
-78 -51 -68 26 10 19 -2 -31 -51 -38 -37 -42 -42 -16 -26 17 10 57 43 88 71
32 29 61 50 66 47 5 -3 6 1 3 9 -3 8 -1 18 5 22 16 9 14 -31 -2 -47 -7 -7 -16
-20 -19 -29 -11 -29 71 -1 85 28 6 13 16 22 22 19 7 -2 11 5 10 17 -1 15 -9
23 -24 25 -14 2 -21 0 -17 -6 4 -6 -2 -8 -14 -5 -11 3 -20 14 -20 24 0 22 -4
22 -45 4z"/>
<path d="M2687 4279 c7 -7 15 -10 18 -7 3 3 -2 9 -12 12 -14 6 -15 5 -6 -5z"/>
<path d="M1532 4145 c-7 -8 -9 -15 -4 -15 5 0 15 7 22 15 16 19 -1 19 -18 0z"/>
<path d="M1506 4065 c-3 -8 -1 -15 4 -15 6 0 10 7 10 15 0 8 -2 15 -4 15 -2 0
-6 -7 -10 -15z"/>
<path d="M1292 4049 c-20 -7 -23 -29 -5 -29 4 0 3 3 -1 7 -4 4 8 13 26 19 18
7 26 13 18 13 -8 0 -25 -4 -38 -10z"/>
<path d="M1508 4033 c7 -3 16 -2 19 1 4 3 -2 6 -13 5 -11 0 -14 -3 -6 -6z"/>
<path d="M1515 3990 c3 -5 8 -10 11 -10 2 0 4 5 4 10 0 6 -5 10 -11 10 -5 0
-7 -4 -4 -10z"/>
<path d="M1870 3985 c-60 -14 -131 -46 -113 -52 12 -4 165 31 208 47 15 6 34
6 47 0 20 -8 20 -9 4 -9 -11 -1 -17 -4 -14 -7 3 -3 21 -1 39 4 l34 9 -28 12
c-35 14 -105 12 -177 -4z"/>
<path d="M2178 3943 c-43 -5 -48 -15 -15 -31 36 -17 -97 -15 -166 3 -69 18
-122 19 -168 4 -51 -18 -53 -24 -15 -47 24 -14 34 -26 30 -36 -5 -12 -10 -13
-25 -5 -23 12 -49 1 -28 -12 21 -13 3 -22 -19 -10 -32 17 -62 14 -62 -7 0 -12
-19 -26 -62 -45 -35 -15 -68 -27 -75 -27 -7 0 -11 -6 -9 -12 1 -7 1 -10 -1 -5
-3 4 -9 7 -14 7 -6 0 -7 -5 -3 -12 4 -6 -3 -4 -17 5 -13 9 -33 17 -45 17 -25
0 -144 -59 -144 -72 0 -4 -7 -8 -15 -8 -8 0 -15 -5 -15 -11 0 -5 4 -8 9 -5 5
4 17 3 26 0 14 -6 12 -10 -11 -25 -15 -10 -31 -16 -36 -13 -4 3 -8 1 -8 -4 0
-13 -76 -62 -95 -62 -15 0 -74 -57 -75 -72 0 -5 7 -8 15 -8 12 0 13 -5 3 -27
-7 -16 -17 -35 -24 -43 -7 -8 -16 -28 -19 -45 -4 -16 -29 -59 -54 -95 -71 -99
-106 -191 -104 -269 1 -35 7 -69 13 -75 7 -7 10 -5 10 8 0 9 4 15 9 11 5 -3
23 9 40 27 l31 33 -9 -33 c-8 -27 -7 -34 10 -42 25 -14 79 13 79 40 0 11 9 28
21 38 22 21 60 18 107 -7 12 -7 27 -9 33 -5 6 3 13 -3 16 -15 7 -27 18 -29
160 -29 68 0 128 -4 135 -8 7 -5 19 -9 27 -11 8 -1 25 -4 38 -8 13 -3 23 -2
23 2 0 13 -36 63 -42 58 -2 -3 -5 2 -5 9 0 12 5 13 21 4 15 -8 13 -3 -7 16
-15 14 -35 26 -43 26 -8 0 -13 4 -9 10 3 5 12 7 21 3 8 -3 14 -2 13 3 -4 15
13 64 21 64 15 0 29 -27 36 -68 3 -23 10 -40 13 -37 4 2 13 -16 20 -41 7 -24
17 -47 23 -50 15 -9 89 7 82 18 -10 15 18 29 33 16 18 -15 29 18 12 38 -11 13
1 29 89 113 56 54 102 104 102 112 1 25 37 59 57 54 10 -3 5 1 -12 9 -26 13
-25 18 2 15 4 0 11 14 17 32 7 19 19 33 30 35 11 2 23 9 28 17 5 9 19 14 36
12 27 -3 52 9 52 26 0 5 -7 6 -15 3 -8 -4 -15 -1 -15 5 0 6 7 11 15 11 9 0 12
6 9 15 -4 9 0 15 10 15 10 0 13 6 9 18 -5 13 -1 11 14 -5 l20 -23 74 57 c41
31 79 64 86 72 15 20 -2 40 -19 23 -16 -16 -38 -15 -38 1 0 6 -11 25 -24 42
l-24 29 34 45 c19 24 34 48 34 54 0 6 -19 7 -47 3 -27 -3 -79 -8 -118 -11 -69
-5 -69 -5 -33 9 20 8 48 22 63 32 19 12 32 15 43 8 21 -12 84 -3 89 13 3 7 -4
9 -18 6 -15 -4 -20 -2 -15 5 4 7 -6 13 -26 16 -18 3 -44 8 -58 10 -14 2 28 2
93 -1 132 -6 155 6 60 32 -32 9 -101 29 -154 45 -53 17 -98 29 -100 28 -2 -1
-21 -3 -41 -5z m102 -153 c-8 -5 -22 -10 -30 -10 -13 0 -13 1 0 10 8 5 22 10
30 10 13 0 13 -1 0 -10z m-563 -95 c0 -8 -4 -12 -9 -9 -7 5 -12 -10 -9 -29 1
-5 -3 -6 -8 -3 -5 4 -12 2 -16 -4 -3 -5 -11 -10 -16 -10 -6 0 -8 4 -5 9 4 5 0
11 -6 14 -7 2 -1 8 14 12 16 4 25 12 21 18 -3 5 -1 7 5 3 6 -3 13 -2 17 4 9
14 12 13 12 -5z m-109 -38 c-1 -2 3 -11 10 -20 12 -14 10 -17 -13 -23 -19 -5
-25 -12 -22 -24 2 -10 0 -24 -5 -31 -7 -12 -9 -11 -7 1 3 29 -1 41 -11 35 -6
-4 -8 -10 -6 -13 2 -4 -7 -13 -20 -19 -23 -11 -22 -8 8 26 18 21 38 38 43 37
6 -1 11 6 11 14 3 30 4 33 10 28 3 -4 4 -8 2 -11z m-218 -11 c0 -3 -4 -8 -10
-11 -5 -3 -10 -1 -10 4 0 6 5 11 10 11 6 0 10 -2 10 -4z m576 -98 c-3 -46 -5
-84 -5 -85 -1 -2 -17 -3 -37 -3 -21 0 -33 -4 -29 -10 3 -5 16 -10 28 -10 19 0
24 -9 35 -53 16 -72 16 -77 -13 -77 -16 0 -25 -6 -25 -15 0 -8 -4 -15 -10 -15
-5 0 -10 -7 -10 -16 0 -8 4 -13 9 -9 5 3 12 1 15 -4 8 -13 -17 -31 -47 -33
-14 -1 -23 -6 -21 -10 3 -5 9 -6 13 -4 4 3 13 1 21 -4 12 -7 13 -13 3 -27 -6
-10 -16 -17 -23 -15 -7 2 -9 -5 -5 -18 9 -29 -3 -44 -23 -28 -12 10 -14 10 -8
1 8 -14 -12 -17 -30 -5 -15 10 -25 42 -14 42 6 0 10 7 10 16 0 8 4 13 9 9 5
-3 12 -2 15 3 7 12 -26 11 -42 -1 -7 -6 -12 -6 -11 -1 4 21 -2 28 -11 14 -6
-10 -10 -11 -10 -2 0 6 -6 12 -14 12 -8 0 -17 -6 -19 -12 -3 -7 -6 0 -6 15 -1
17 -5 26 -12 22 -16 -10 0 136 17 156 8 8 14 31 14 50 0 26 10 46 38 77 20 23
45 53 55 67 10 14 27 25 37 25 11 0 25 7 32 15 7 8 28 14 46 15 l33 0 -5 -82z
m-326 52 c0 -5 -5 -10 -11 -10 -5 0 -7 5 -4 10 3 6 8 10 11 10 2 0 4 -4 4 -10z
m-52 -95 c-3 -3 -9 2 -12 12 -6 14 -5 15 5 6 7 -7 10 -15 7 -18z m712 -1 c0
-8 -5 -12 -10 -9 -6 4 -8 11 -5 16 9 14 15 11 15 -7z m-42 -36 c-3 -14 -36
-37 -53 -38 -5 0 4 11 20 25 35 29 36 29 33 13z m-660 -83 c-3 -3 -9 2 -12 12
-6 14 -5 15 5 6 7 -7 10 -15 7 -18z m27 -265 c3 -5 1 -10 -4 -10 -6 0 -11 5
-11 10 0 6 2 10 4 10 3 0 8 -4 11 -10z"/>
<path d="M1860 3420 c0 -5 5 -10 10 -10 6 0 10 5 10 10 0 6 -4 10 -10 10 -5 0
-10 -4 -10 -10z"/>
<path d="M1880 3310 c0 -5 5 -10 11 -10 5 0 7 5 4 10 -3 6 -8 10 -11 10 -2 0
-4 -4 -4 -10z"/>
<path d="M2540 3820 c34 -11 60 -11 35 0 -11 5 -29 8 -40 8 -16 0 -15 -2 5 -8z"/>
<path d="M220 3771 c0 -6 4 -13 10 -16 6 -3 7 1 4 9 -7 18 -14 21 -14 7z"/>
<path d="M2469 3758 c-1 -7 -3 -23 -4 -35 -1 -13 3 -23 10 -23 17 0 78 42 83
58 2 8 -10 12 -42 12 -29 0 -46 -5 -47 -12z"/>
<path d="M1053 3725 c0 -9 7 -15 16 -13 19 4 18 22 -2 26 -7 2 -14 -4 -14 -13z"/>
<path d="M1217 3596 c-31 -18 -60 -36 -65 -41 -14 -16 49 6 66 23 10 9 29 25
42 34 39 27 20 20 -43 -16z"/>
<path d="M2942 3422 c-14 -2 -22 -9 -20 -20 2 -9 -5 -18 -16 -20 -14 -3 -17 0
-13 12 12 31 -32 17 -54 -16 -19 -31 -20 -53 -5 -88 5 -11 -13 -31 -62 -68
-38 -29 -73 -52 -79 -52 -11 0 -40 -25 -63 -54 -14 -18 -13 -18 10 -12 21 6
19 2 -15 -28 -22 -19 -44 -35 -48 -36 -5 0 -32 -24 -60 -53 -29 -29 -61 -59
-73 -67 -11 -8 -27 -28 -35 -45 -11 -23 -29 -35 -84 -55 -39 -14 -100 -40
-135 -57 -62 -30 -96 -36 -261 -49 -55 -4 -99 -19 -99 -34 0 -6 5 -8 10 -5 6
3 10 1 10 -4 0 -14 -27 -14 -35 -1 -7 12 -161 14 -168 3 -2 -5 -2 -2 -1 5 3 9
-24 12 -104 14 -59 1 -116 1 -127 1 -18 -1 -59 9 -160 37 -28 8 -57 16 -148
41 -30 8 -42 19 -62 57 -21 41 -24 44 -26 22 -1 -14 -3 -34 -5 -45 -15 -78
-15 -143 1 -180 17 -39 18 -39 26 -16 9 22 11 23 27 7 10 -9 23 -16 29 -16 6
0 13 -12 16 -28 9 -43 50 -52 230 -52 131 0 177 -4 279 -26 104 -22 138 -25
218 -20 86 5 276 22 340 30 14 2 33 4 43 4 10 1 16 6 13 11 -3 5 15 14 41 20
74 19 186 76 229 117 22 21 31 34 20 30 -11 -3 1 11 25 32 24 22 50 37 57 35
9 -4 10 -9 1 -19 -9 -11 -8 -14 5 -14 9 0 16 4 16 8 0 4 9 8 20 9 14 1 18 -2
13 -10 -4 -7 -8 -19 -8 -27 0 -8 -21 -28 -46 -45 -25 -16 -46 -33 -45 -37 1
-3 -9 -17 -22 -30 -12 -14 -19 -28 -15 -31 3 -4 1 -7 -5 -7 -7 0 -12 -5 -12
-11 0 -9 23 -10 78 -6 42 3 88 1 102 -3 22 -7 21 -8 -13 -9 -21 -1 -36 -5 -32
-10 3 -5 -5 -12 -17 -15 -13 -2 5 -2 40 1 34 3 62 1 62 -4 0 -13 -38 -33 -53
-27 -13 5 -31 -27 -28 -48 2 -13 -48 -9 -86 7 -65 27 -135 16 -181 -29 -9 -9
-26 -24 -37 -32 -16 -13 -17 -15 -3 -10 21 6 48 -2 48 -15 0 -5 -13 -9 -28 -9
-41 0 -46 -10 -20 -38 l23 -25 -23 12 c-28 15 -93 9 -144 -13 -30 -13 -37 -22
-43 -55 -3 -22 -13 -42 -20 -45 -21 -8 -12 -103 13 -153 21 -40 19 -56 -3 -33
-7 6 -8 -21 -4 -73 5 -84 3 -108 -8 -69 -3 12 -9 22 -14 22 -4 0 0 -19 10 -42
10 -24 24 -42 30 -40 6 1 11 -5 11 -14 0 -23 67 -47 145 -49 39 -2 94 -10 124
-19 69 -20 330 -23 349 -4 10 10 17 10 34 -1 17 -11 34 -9 112 10 235 57 288
76 381 133 39 24 113 70 165 101 52 32 113 72 135 89 22 18 71 52 110 76 73
45 150 119 166 158 11 29 1 72 -17 72 -8 0 -14 6 -14 13 -1 46 -23 152 -33
159 -6 4 -9 8 -4 8 7 0 -42 94 -75 143 -11 15 -17 27 -14 27 3 0 -3 9 -14 20
-11 11 -24 20 -30 20 -5 0 -10 6 -10 13 0 9 -2 9 -9 -1 -17 -28 17 -110 41
-96 4 3 7 2 6 -3 -4 -14 25 -83 35 -83 5 0 7 -7 3 -15 -3 -8 0 -14 6 -12 11 2
78 -89 78 -105 0 -18 -16 -6 -40 28 -13 20 -36 41 -50 45 -17 6 -34 26 -49 59
-25 52 -41 57 -41 11 0 -17 -11 -38 -29 -55 -25 -24 -34 -27 -63 -21 -18 4
-44 16 -57 26 -13 11 -34 19 -47 19 -13 0 -24 6 -24 13 0 9 -2 9 -8 0 -4 -6
-46 -17 -92 -23 -219 -29 -295 -38 -298 -35 -4 4 -12 51 -15 87 -1 15 -10 33
-19 40 -9 7 -20 30 -24 51 -6 37 -6 38 22 32 16 -2 81 -10 144 -16 63 -6 119
-14 125 -19 12 -10 117 8 125 20 3 5 23 13 45 19 22 5 72 21 110 35 83 31 70
29 89 10 9 -8 16 -11 16 -5 0 5 -8 14 -17 19 -18 11 -21 22 -27 132 -4 52 -10
78 -21 86 -8 6 -15 15 -15 20 0 11 -40 37 -47 31 -2 -3 9 -30 25 -61 16 -31
32 -53 36 -49 3 4 1 -8 -5 -25 -12 -35 -24 -44 -16 -12 3 11 1 18 -3 15 -10
-6 -23 13 -27 40 -2 11 -16 47 -33 80 -22 47 -45 73 -97 115 -79 63 -103 84
-152 126 -48 41 -117 84 -136 84 -9 0 -14 4 -11 9 3 5 -27 18 -67 29 -39 11
-64 21 -54 21 10 1 16 5 13 10 -8 12 -36 17 -64 13z m405 -748 c-3 -3 -12 -4
-19 -1 -8 3 -5 6 6 6 11 1 17 -2 13 -5z m-427 -14 c0 -5 -2 -10 -4 -10 -3 0
-8 5 -11 10 -3 6 -1 10 4 10 6 0 11 -4 11 -10z m-235 -44 l-70 -24 66 5 c41 4
69 2 73 -5 9 -15 -23 -23 -115 -31 -76 -6 -106 2 -55 15 14 3 26 13 28 22 2
10 21 21 48 28 80 21 97 14 25 -10z m-466 -702 c33 -33 39 -43 27 -47 -9 -4
-16 -2 -16 4 0 5 -8 12 -17 16 -25 9 -63 44 -63 59 0 21 25 10 69 -32z m77
-41 c11 -10 25 -31 32 -46 12 -27 12 -28 -9 -13 -12 8 -27 26 -35 41 -21 41
-18 45 12 18z m76 -56 c10 -19 10 -19 -16 -1 -14 11 -26 25 -26 33 0 11 3 11
16 1 8 -8 20 -22 26 -33z"/>
<path d="M2480 3293 c-89 -59 -234 -213 -201 -213 15 0 133 97 159 131 22 27
51 42 36 17 -5 -7 -3 -8 5 -4 7 5 10 10 8 12 -2 3 11 20 29 38 32 32 43 56 26
56 -4 0 -32 -16 -62 -37z"/>
<path d="M828 3284 c-29 -15 -38 -44 -15 -44 14 0 57 41 57 53 0 10 -12 8 -42
-9z"/>
<path d="M770 3270 c0 -5 5 -10 10 -10 6 0 10 5 10 10 0 6 -4 10 -10 10 -5 0
-10 -4 -10 -10z"/>
<path d="M2284 3205 c-9 -14 -22 -25 -30 -25 -7 0 -26 -11 -41 -25 -25 -22
-26 -24 -8 -25 19 -1 19 -1 3 -14 -10 -7 -18 -17 -18 -21 0 -4 -16 -25 -36
-47 -34 -38 -41 -64 -9 -38 8 7 22 10 30 6 11 -4 22 4 33 25 9 17 37 57 61 90
24 33 41 63 37 66 -3 3 2 12 12 19 16 13 16 13 0 14 -10 0 -25 -11 -34 -25z"/>
<path d="M688 3195 c-10 -23 -5 -46 8 -33 6 7 13 58 7 58 -2 0 -9 -11 -15 -25z"/>
<path d="M749 3188 c0 -13 -3 -17 -6 -10 -9 23 -23 12 -17 -13 3 -13 1 -39 -5
-57 l-11 -33 36 39 c25 27 32 41 23 46 -6 5 -9 15 -6 24 3 8 2 18 -3 21 -6 4
-10 -4 -11 -17z"/>
<path d="M370 3188 c0 -6 19 -41 42 -76 38 -58 43 -62 55 -46 20 27 14 84 -9
84 -6 0 -23 11 -40 25 -32 27 -48 32 -48 13z"/>
<path d="M0 2801 c0 -235 3 -340 10 -336 6 4 8 15 5 26 -5 14 -2 17 8 13 8 -3
18 -1 22 5 3 6 15 11 26 11 24 0 25 30 1 36 -9 3 -21 4 -27 4 -10 -2 -25 31
-19 42 2 3 13 4 24 1 11 -3 17 -9 14 -14 -3 -5 0 -9 5 -9 6 0 11 12 11 26 0
22 -3 24 -22 18 -19 -6 -21 -5 -11 8 7 8 10 18 6 21 -3 4 -1 7 5 7 6 0 17 -8
24 -19 14 -20 117 -75 125 -67 3 3 -6 11 -21 17 -29 13 -36 32 -8 22 14 -6 15
-4 4 9 -7 9 -24 19 -37 22 -26 7 -32 20 -14 31 23 15 59 -6 79 -45 11 -22 25
-40 30 -40 17 0 83 44 72 48 -7 2 -12 10 -12 18 0 8 -4 14 -10 14 -5 0 -7 6
-4 14 7 19 -55 88 -75 84 -15 -4 -50 23 -52 40 -1 4 -10 24 -20 44 -10 21 -19
48 -19 62 0 27 -84 198 -106 217 -12 10 -14 -41 -14 -330z"/>
<path d="M537 3063 c-4 -3 -7 -11 -7 -17 0 -6 5 -5 12 2 6 6 9 14 7 17 -3 3
-9 2 -12 -2z"/>
<path d="M761 3024 c0 -11 3 -14 6 -6 3 7 2 16 -1 19 -3 4 -6 -2 -5 -13z"/>
<path d="M751 2991 c-1 -10 -12 -12 -48 -8 -27 2 -40 3 -30 0 16 -4 18 -11 12
-41 -14 -72 -15 -92 -2 -92 9 0 9 -2 -1 -9 -10 -6 -7 -12 11 -24 l25 -16 11
62 c7 34 17 74 22 89 6 15 9 33 6 40 -4 10 -6 10 -6 -1z"/>
<path d="M1697 2929 c7 -7 15 -10 18 -7 3 3 -2 9 -12 12 -14 6 -15 5 -6 -5z"/>
<path d="M3596 2692 c-5 -8 -4 -18 2 -24 6 -6 8 -16 6 -23 -3 -7 2 -15 10 -18
12 -5 16 0 16 18 0 14 -4 25 -9 25 -5 0 -11 8 -13 18 -3 13 -5 14 -12 4z"/>
<path d="M170 2650 c0 -5 5 -10 10 -10 6 0 10 5 10 10 0 6 -4 10 -10 10 -5 0
-10 -4 -10 -10z"/>
<path d="M3553 2625 l-22 -15 20 -35 c12 -19 25 -35 30 -35 5 0 14 -10 19 -22
7 -19 9 -19 9 -5 1 10 6 15 11 12 6 -3 10 1 10 10 0 8 -7 18 -15 21 -11 5 -13
10 -5 19 8 9 5 14 -11 18 -16 4 -20 11 -16 26 6 25 -1 26 -30 6z"/>
<path d="M50 2500 c-8 -5 -11 -12 -7 -16 4 -4 15 0 24 9 18 18 8 23 -17 7z"/>
<path d="M667 2368 c2 -5 -6 -8 -20 -8 -25 0 -66 -32 -68 -53 0 -7 -2 -21 -4
-32 -12 -61 -28 -184 -27 -207 1 -14 -5 -32 -13 -38 -11 -9 -15 -35 -15 -97 0
-48 -4 -82 -9 -79 -11 7 -4 -104 9 -149 11 -38 16 -153 7 -162 -4 -3 -7 -2 -7
3 0 5 -9 10 -19 10 -26 0 -35 -48 -19 -93 9 -26 10 -38 1 -52 -9 -15 -7 -25
10 -52 30 -47 33 -63 8 -49 -21 11 -37 -2 -26 -20 3 -5 1 -10 -4 -10 -6 0 -11
15 -12 33 0 17 -4 41 -9 52 -7 18 -8 17 -15 -10 -15 -66 -20 -67 -43 -12 -7
16 -8 27 -2 27 6 0 10 -4 10 -10 0 -5 4 -10 9 -10 13 0 3 134 -9 138 -6 2 -10
13 -10 23 0 11 -4 17 -10 14 -5 -3 -10 0 -10 7 -1 7 -2 63 -3 123 -2 80 -8
122 -21 153 -22 50 -40 56 -32 10 5 -25 4 -28 -3 -13 -13 27 -13 225 -1 299
10 65 -6 189 -25 183 -5 -2 -9 -10 -8 -18 2 -8 -21 -26 -52 -43 -70 -36 -214
-142 -222 -162 -3 -9 0 -20 7 -24 8 -5 9 -9 1 -14 -8 -5 -11 -250 -11 -870 0
-787 1 -866 17 -897 16 -33 44 -68 93 -118 14 -14 34 -39 44 -54 10 -17 23
-26 32 -23 8 3 14 1 14 -4 0 -6 6 -10 13 -10 8 0 24 -11 37 -25 l23 -25 714 0
c392 0 713 3 713 8 0 4 -7 29 -15 56 -8 27 -15 62 -15 77 0 15 -6 29 -12 32
-10 4 -10 7 0 18 9 9 12 10 12 1 0 -7 11 -12 25 -12 14 0 45 -10 68 -22 23
-12 46 -21 51 -20 4 2 18 -3 30 -11 11 -8 54 -24 94 -36 40 -13 78 -29 85 -35
6 -7 19 -11 28 -9 9 3 35 -7 58 -22 42 -26 43 -26 199 -21 86 3 171 7 187 10
17 3 62 9 100 15 39 6 124 19 190 31 66 11 132 20 147 20 27 0 165 42 199 60
9 5 33 12 54 16 46 8 157 69 238 129 64 47 68 55 14 29 l-32 -15 30 26 c74 64
196 192 207 217 8 16 15 23 19 16 11 -18 54 38 94 119 33 69 115 324 115 357
0 9 -9 16 -20 16 -25 0 -26 22 -1 108 26 93 39 154 51 247 6 44 12 87 14 95 1
8 6 38 11 65 4 28 10 54 13 59 9 16 11 56 5 141 -5 69 -8 81 -24 82 -10 1 -23
-5 -30 -13 -6 -8 -17 -14 -24 -14 -6 0 -28 -17 -49 -37 -27 -27 -39 -34 -45
-25 -6 10 -20 6 -61 -15 -29 -15 -47 -29 -41 -31 16 -5 -18 -31 -41 -32 -10 0
-18 -4 -18 -10 0 -5 -7 -10 -15 -10 -8 0 -15 -6 -15 -14 0 -8 -15 -17 -37 -21
-20 -4 -58 -18 -85 -31 -26 -13 -51 -25 -55 -25 -5 -1 -17 -5 -28 -9 -11 -4
-36 -11 -55 -15 -19 -4 -62 -20 -95 -35 -67 -32 -148 -48 -275 -54 -89 -5
-121 -11 -157 -28 -12 -6 -35 -9 -52 -6 -17 2 -27 0 -24 -5 3 -5 -3 -6 -15 -3
-25 8 -94 -3 -87 -14 2 -4 -14 -2 -36 4 -31 8 -42 8 -48 -3 -7 -10 -13 -10
-29 -2 -15 8 -21 8 -25 -2 -3 -9 -9 -9 -26 1 -28 16 -31 15 -31 -7 0 -26 -18
-37 -26 -17 -3 9 -12 16 -18 16 -7 0 -32 9 -56 21 -23 11 -57 22 -74 24 -17 1
-38 6 -48 10 -10 4 -16 2 -15 -7 2 -58 -24 -64 -71 -15 -60 62 -194 110 -176
63 8 -21 -15 -30 -34 -14 -9 8 -34 21 -54 31 l-38 17 0 -29 c0 -47 -29 -44
-77 9 -33 34 -45 42 -52 31 -5 -8 -11 -9 -15 -3 -3 5 -18 7 -32 4 -21 -4 -26
-2 -22 9 6 16 -26 62 -36 52 -3 -3 -15 2 -25 11 -18 16 -21 16 -44 2 -24 -16
-55 -13 -69 8 -4 5 -10 32 -13 59 -6 41 -16 58 -67 113 -33 35 -66 64 -72 64
-7 0 -23 11 -36 25 l-24 26 -17 -22 c-18 -24 -39 -18 -39 12 0 10 -11 29 -25
41 -14 12 -25 32 -25 45 0 13 -4 23 -10 23 -5 0 -10 11 -10 25 0 14 -5 25 -11
25 -7 0 -9 -10 -7 -25 3 -13 0 -26 -6 -29 -7 -3 -6 -8 4 -15 18 -13 9 -23 -10
-11 -10 6 -15 27 -15 68 0 46 -2 56 -11 44 -6 -8 -16 -12 -22 -8 -6 4 -12 -3
-14 -16 -6 -43 -23 -18 -26 37 -3 60 -2 59 -59 38 -10 -4 -13 16 -13 80 0 47
-4 89 -10 92 -5 3 -10 -1 -10 -9 0 -9 -8 -16 -19 -16 -28 0 -35 17 -11 25 22
7 24 13 10 35 -7 12 -10 11 -17 -8 l-9 -23 -22 26 c-12 14 -22 30 -22 36 0 6
-26 9 -69 7 -38 -2 -67 -6 -64 -10z m-107 -412 c0 -39 -6 -31 -14 19 -5 29 -4
36 3 25 6 -8 11 -28 11 -44z m766 -192 c-6 -24 12 -44 23 -26 4 7 11 4 19 -8
7 -12 8 -20 2 -20 -5 0 -10 5 -10 10 0 6 -8 5 -20 -2 -28 -18 -49 14 -49 72
l0 45 20 -24 c13 -16 18 -33 15 -47z m-756 25 c0 -11 -4 -17 -10 -14 -5 3 -10
15 -10 26 0 11 5 17 10 14 6 -3 10 -15 10 -26z m2677 -335 c-3 -3 -12 -4 -19
-1 -8 3 -5 6 6 6 11 1 17 -2 13 -5z m-938 -72 c-14 -5 -39 6 -39 17 0 5 11 4
25 -2 13 -7 20 -14 14 -15z m-1725 -17 c3 -8 1 -15 -4 -15 -6 0 -10 7 -10 15
0 8 2 15 4 15 2 0 6 -7 10 -15z m1170 -16 c5 -4 -8 -3 -30 2 -21 6 -41 13 -44
16 -9 9 65 -9 74 -18z m-379 -29 c3 -5 -1 -10 -9 -10 -8 0 -18 5 -21 10 -3 6
1 10 9 10 8 0 18 -4 21 -10z m-818 -52 c-3 -8 -6 -5 -6 6 -1 11 2 17 5 13 3
-3 4 -12 1 -19z m26 -3 c-3 -9 -8 -14 -10 -11 -3 3 -2 9 2 15 9 16 15 13 8 -4z
m-116 -17 c-3 -8 -6 -5 -6 6 -1 11 2 17 5 13 3 -3 4 -12 1 -19z m100 -115 c26
-60 55 -155 49 -160 -3 -4 -6 1 -6 10 0 9 -4 17 -10 17 -5 0 -12 11 -16 25 -3
14 -10 25 -14 25 -5 0 -9 8 -9 18 0 9 -4 34 -9 55 -12 43 -2 49 15 10z m3208
-212 c-4 -17 -11 -28 -16 -25 -6 3 -9 0 -8 -7 2 -8 -11 -43 -28 -79 -17 -36
-36 -80 -43 -97 -7 -18 -17 -33 -22 -33 -5 0 -4 9 2 20 6 11 8 25 5 30 -3 5
-1 11 5 15 6 4 8 10 5 15 -3 4 2 13 9 19 8 7 26 41 42 76 15 36 31 65 36 65 4
0 8 10 8 22 0 12 3 19 6 15 3 -3 3 -19 -1 -36z m-164 -318 c-12 -20 -14 -14
-5 12 4 9 9 14 11 11 3 -2 0 -13 -6 -23z m-11 -31 c0 -5 -7 -17 -15 -28 -14
-18 -14 -17 -4 9 12 27 19 34 19 19z"/>
<path d="M1927 2182 c-21 -10 -32 -11 -40 -3 -13 13 -47 15 -47 3 0 -4 -17 -6
-37 -4 -23 2 -52 -4 -74 -16 -32 -16 -38 -17 -57 -4 -23 15 -242 31 -242 18 0
-4 25 -31 55 -61 30 -30 55 -61 55 -67 0 -22 48 -59 81 -63 29 -4 116 -55 165
-98 12 -10 28 -17 35 -16 25 4 179 -66 192 -88 4 -7 21 -13 37 -13 16 0 40 -4
54 -10 22 -8 26 -7 26 10 0 11 -7 35 -16 54 -15 30 -19 33 -31 20 -26 -26 -36
-16 -29 29 3 23 2 49 -4 57 -7 11 -10 7 -10 -19 0 -41 -7 -36 -25 16 -7 21
-19 38 -26 38 -9 0 -14 27 -17 99 -5 127 -8 136 -45 118z m13 -169 c-11 -17
-11 -17 -6 0 3 10 7 26 7 35 1 15 2 15 6 0 2 -10 -1 -25 -7 -35z m67 -150 c-3
-10 -5 -2 -5 17 0 19 2 27 5 18 2 -10 2 -26 0 -35z"/>
<path d="M2076 2095 c-8 -48 -1 -119 16 -173 17 -57 26 -22 18 73 -4 50 -4
100 1 112 7 19 -4 33 -26 33 -1 0 -6 -20 -9 -45z"/>
<path d="M363 1915 c0 -22 2 -30 4 -17 2 12 2 30 0 40 -3 9 -5 -1 -4 -23z"/>
<path d="M501 1884 c0 -11 3 -14 6 -6 3 7 2 16 -1 19 -3 4 -6 -2 -5 -13z"/>
<path d="M381 1867 c-1 -10 -5 -15 -11 -12 -14 9 -12 -17 4 -38 13 -16 14 -16
18 6 3 13 1 32 -3 43 -7 17 -8 17 -8 1z"/>
<path d="M442 1815 c0 -16 2 -22 5 -12 2 9 2 23 0 30 -3 6 -5 -1 -5 -18z"/>
<path d="M1928 1523 c7 -3 16 -2 19 1 4 3 -2 6 -13 5 -11 0 -14 -3 -6 -6z"/>
<path d="M451 1444 c0 -12 6 -24 14 -28 8 -3 15 -1 15 4 0 6 -4 10 -9 10 -5 0
-12 8 -14 18 -4 13 -5 12 -6 -4z"/>
</g>
</svg>
